<mxfile>
    <diagram id="TiM9CXhnGI_4lmBxlTIE" name="Page-1">
        <mxGraphModel dx="833" dy="670" grid="1" gridSize="10" guides="1" tooltips="1" connect="1" arrows="1" fold="1" page="1" pageScale="1" pageWidth="1169" pageHeight="1654" math="0" shadow="0">
            <root>
                <mxCell id="0"/>
                <mxCell id="1" parent="0"/>
                <mxCell id="2" value="" style="shape=actor;whiteSpace=wrap;html=1;" parent="1" vertex="1">
                    <mxGeometry x="520" y="430" width="90" height="110" as="geometry"/>
                </mxCell>
                <mxCell id="5" value="famazon.dot" style="text;html=1;align=center;verticalAlign=middle;resizable=0;points=[];autosize=1;fontSize=36;fillColor=#6a00ff;strokeColor=#3700CC;fontColor=#ffffff;" parent="1" vertex="1">
                    <mxGeometry x="40" y="40" width="210" height="50" as="geometry"/>
                </mxCell>
                <mxCell id="13" value="&lt;font style=&quot;font-size: 16px&quot;&gt;Customer&lt;/font&gt;" style="ellipse;shape=cloud;whiteSpace=wrap;html=1;labelBackgroundColor=none;fontSize=36;" parent="1" vertex="1">
                    <mxGeometry x="40" y="300" width="170" height="110" as="geometry"/>
                </mxCell>
                <mxCell id="14" value="&lt;font style=&quot;font-size: 16px&quot;&gt;Company&lt;/font&gt;" style="ellipse;shape=cloud;whiteSpace=wrap;html=1;labelBackgroundColor=none;fontSize=36;" parent="1" vertex="1">
                    <mxGeometry x="630" y="60" width="170" height="110" as="geometry"/>
                </mxCell>
                <mxCell id="15" value="&lt;font style=&quot;font-size: 16px&quot;&gt;Payment&lt;/font&gt;" style="ellipse;shape=cloud;whiteSpace=wrap;html=1;labelBackgroundColor=none;fontSize=36;" parent="1" vertex="1">
                    <mxGeometry x="640" y="310" width="170" height="110" as="geometry"/>
                </mxCell>
                <mxCell id="18" value="&lt;font style=&quot;font-size: 16px&quot;&gt;Product&lt;/font&gt;" style="ellipse;shape=cloud;whiteSpace=wrap;html=1;labelBackgroundColor=none;fontSize=36;" parent="1" vertex="1">
                    <mxGeometry x="130" y="140" width="170" height="110" as="geometry"/>
                </mxCell>
                <mxCell id="19" value="&lt;font style=&quot;font-size: 16px&quot;&gt;Website&lt;br&gt;&lt;/font&gt;" style="ellipse;shape=cloud;whiteSpace=wrap;html=1;labelBackgroundColor=none;fontSize=36;" parent="1" vertex="1">
                    <mxGeometry x="440" y="210" width="170" height="110" as="geometry"/>
                </mxCell>
                <mxCell id="20" value="&lt;font style=&quot;font-size: 16px&quot;&gt;Shipping&lt;/font&gt;" style="ellipse;shape=cloud;whiteSpace=wrap;html=1;labelBackgroundColor=none;fontSize=36;" parent="1" vertex="1">
                    <mxGeometry x="370" y="40" width="170" height="110" as="geometry"/>
                </mxCell>
                <mxCell id="21" value="&lt;font style=&quot;font-size: 16px&quot;&gt;Order&lt;br&gt;&lt;/font&gt;" style="ellipse;shape=cloud;whiteSpace=wrap;html=1;labelBackgroundColor=none;fontSize=36;" vertex="1" parent="1">
                    <mxGeometry x="280" y="330" width="170" height="110" as="geometry"/>
                </mxCell>
            </root>
        </mxGraphModel>
    </diagram>
</mxfile>